<?xml version="1.0" encoding="UTF-8" standalone="no"?>
<!-- Created with Inkscape (http://www.inkscape.org/) -->

<svg
   width="115.26355mm"
   height="131.84932mm"
   viewBox="0 0 115.26355 131.84932"
   version="1.1"
   id="svg1"
   xml:space="preserve"
   inkscape:version="1.4.3 (0d15f75, 2025-12-25)"
   sodipodi:docname="JUJ4.svg"
   xmlns:inkscape="http://www.inkscape.org/namespaces/inkscape"
   xmlns:sodipodi="http://sodipodi.sourceforge.net/DTD/sodipodi-0.dtd"
   xmlns="http://www.w3.org/2000/svg"
   xmlns:svg="http://www.w3.org/2000/svg"><sodipodi:namedview
     id="namedview1"
     pagecolor="#ffffff"
     bordercolor="#000000"
     borderopacity="0.25"
     inkscape:showpageshadow="2"
     inkscape:pageopacity="0.0"
     inkscape:pagecheckerboard="0"
     inkscape:deskcolor="#d1d1d1"
     inkscape:document-units="mm"
     inkscape:zoom="0.76167929"
     inkscape:cx="447.69499"
     inkscape:cy="721.43224"
     inkscape:window-width="1920"
     inkscape:window-height="1057"
     inkscape:window-x="-8"
     inkscape:window-y="-8"
     inkscape:window-maximized="1"
     inkscape:current-layer="g191"><inkscape:page
       x="1.7711191e-21"
       y="-1.1829015e-22"
       width="115.26355"
       height="131.8493"
       id="page2"
       margin="0"
       bleed="0" /></sodipodi:namedview><defs
     id="defs1" /><g
     inkscape:label="Layer 1"
     inkscape:groupmode="layer"
     id="layer1"
     transform="translate(-43.448703,-24.39392)"><g
       id="g193"
       style="display:inline"
       transform="translate(-52.431036,325.31217)"><path
         style="fill:#f76702;fill-opacity:1"
         d="m 144.42241,-251.59656 c -0.65349,-0.54988 -0.81405,-0.88907 -0.81405,-1.71979 0,-1.33613 0.72203,-2.09314 1.99641,-2.09314 2.07119,0 2.95045,2.2376 1.46353,3.72451 -0.95305,0.95305 -1.59292,0.97444 -2.64589,0.0884 z"
         id="path187" /><path
         style="fill:#f56903;fill-opacity:1"
         d="m 161.04218,-250.25294 c -0.55525,-0.47761 -0.72913,-0.86436 -0.72913,-1.62179 0,-0.75742 0.17388,-1.14418 0.72913,-1.62178 0.84138,-0.72372 1.4804,-0.78429 2.53278,-0.24008 1.31582,0.68043 1.50498,2.41678 0.37717,3.462 -0.88735,0.82237 -1.9697,0.83042 -2.90995,0.0217 z"
         id="path186" /><path
         style="fill:#f76a04;fill-opacity:1"
         d="m 170.53637,-225.65943 c -1.47057,-0.79805 -1.68724,-2.37946 -0.49003,-3.57667 0.90807,-0.90806 1.43262,-0.95893 2.59294,-0.25145 1.55144,0.94595 1.377,3.01895 -0.32187,3.82511 -1.03382,0.49058 -0.88306,0.49033 -1.78104,0.003 z"
         id="path185" /><path
         style="fill:#f66803;fill-opacity:1"
         d="m 135.0822,-225.65943 c -1.38903,-0.7538 -1.66662,-2.26431 -0.63625,-3.46219 1.6994,-1.97567 4.82132,0.28117 3.58487,2.5915 -0.15724,0.29379 -0.68919,0.70269 -1.18213,0.90865 -1.05764,0.44191 -0.875,0.44583 -1.76649,-0.038 z"
         id="path184" /><path
         style="fill:#f86902;fill-opacity:1"
         d="m 151.67816,-184.85886 c -3.87098,-1.27603 -6.10492,-3.96217 -7.0528,-8.48044 -0.15558,-0.74158 -0.42995,-1.52692 -0.60971,-1.7452 -0.90263,-1.09601 -0.56698,-2.67742 0.70823,-3.33686 0.93944,-0.4858 1.83738,-0.31899 2.58133,0.47954 0.58181,0.6245 0.73151,2.1764 0.23929,2.48061 -0.42752,0.26422 -0.11386,2.45167 0.58424,4.07445 1.82218,4.23577 7.31449,5.32877 10.54478,2.09848 1.54708,-1.54707 2.98985,-5.66338 2.16394,-6.17382 -0.45656,-0.28217 -0.34978,-1.87996 0.16726,-2.5027 0.25466,-0.30673 0.8452,-0.6315 1.31231,-0.72173 0.71078,-0.13728 0.98049,-0.0328 1.65365,0.64031 0.94605,0.94605 1.0387,1.91888 0.27518,2.88953 -0.29104,0.37 -0.52916,0.94292 -0.52916,1.27316 0,0.99677 -1.23317,4.31996 -1.95351,5.26437 -2.07126,2.71556 -4.22347,3.92716 -7.17462,4.03899 -1.02326,0.0388 -2.32569,-0.0859 -2.91041,-0.27869 z"
         id="path183" /><path
         id="path59"
         d="m 163.05342,-292.06325 c 1.9521,2.28269 3.87047,4.5399 4.89944,5.76761 l 2.71663,3.24115 h -2.68149 -2.68149 l 1.27848,1.4304 c 0.70327,0.78654 3.89836,4.25739 7.09982,7.71322 8.92942,9.63893 13.09688,14.23319 13.09688,14.43788 v 5.2e-4 5.2e-4 l -5.2e-4,5.1e-4 c -0.0174,0.0483 -0.58123,0.0946 -1.48983,0.12971 -1.00335,0.0388 -2.42702,0.0651 -3.99976,0.0687 -0.24782,6.2e-4 -0.25827,0.001 -0.50126,0.002 -0.61508,0.002 -0.75452,0.0273 -1.43298,0.0222 -1.73466,-0.013 -3.30217,-0.005 -4.39302,0.0176 -0.21561,0.0376 -0.34666,0.12485 -0.30954,0.22324 0.0836,0.22166 10.34128,11.04565 18.33325,19.34559 l 3.69383,3.83646 -1.49707,0.0284 c 0.0246,0.0453 0.034,0.0749 0.0264,0.0873 -0.0787,0.12741 -3.20209,0.23342 -6.94066,0.23565 -2.26158,0.001 -4.2308,0.0345 -5.40122,0.0842 l 2.32337,2.60708 c 1.36163,1.52797 3.50227,3.90921 4.75733,5.29166 1.25505,1.38244 3.7683,4.18042 5.58467,6.21771 1.81637,2.0373 4.757,5.33089 6.535,7.31945 1.77801,1.98856 3.23288,3.68521 3.23288,3.77031 0,0.032 -0.49469,0.0616 -1.33945,0.0863 0.002,0.008 0.001,0.0152 -5.2e-4,0.0191 -0.1027,0.16616 -2.96529,0.26459 -7.70392,0.26459 -3.28077,0 -5.46221,0.0382 -6.55464,0.1142 0.029,0.10584 0.10654,0.20581 0.19689,0.24391 0.19772,0.0834 20.41804,22.07655 21.18889,23.04666 0.14334,0.18039 0.0743,0.28978 -1.17513,0.35605 0.001,0.0182 0.001,0.0355 0.001,0.0543 0,0.17593 -5.5681,0.24302 -16.46463,0.19792 l -16.46463,-0.0682 -1.87792,-10.18646 c -2.1254,-11.52763 -2.16595,-11.71496 -2.47685,-11.52281 -0.12483,0.0771 -0.21065,-0.0568 -0.19069,-0.29714 0.0227,-0.27398 -0.45409,-0.69211 -1.27847,-1.12138 -1.05303,-0.54834 -1.77316,-0.70277 -3.61632,-0.77618 l -1.91513,-0.0765 c -0.0612,0.025 -0.10987,0.0532 -0.14728,0.0842 -0.11542,0.0958 -0.20253,0.25377 -0.2651,0.49971 -4e-5,1.8e-4 5e-5,3.5e-4 0,5.2e-4 l -0.0615,1.41077 -0.0713,1.63194 v 0.37827 l 2.23242,0.003 c 1.23693,0.002 2.37575,0.091 2.53111,0.19792 0.0276,0.019 0.0563,0.0556 0.0868,0.11214 h 1.46192 l 0.2806,1.38906 c 0.39041,1.93259 3.60593,19.50986 4.53771,24.80469 0.42254,2.4011 0.99161,5.58242 1.26452,7.06985 0.27291,1.48743 0.44122,2.75962 0.37362,2.82722 -0.0147,0.0147 -0.52288,0.0289 -1.44022,0.0424 -0.52997,0.2862 -4.36649,0.32918 -23.4921,0.32918 -12.87457,0 -23.4707,-0.10099 -23.54689,-0.22427 l -0.001,5.1e-4 c -0.0762,-0.12328 0.20586,-2.11757 0.62684,-4.43177 0.42098,-2.3142 1.60835,-8.85093 2.63859,-14.52624 2.78207,-15.32561 3.09356,-16.95663 3.29954,-17.2899 0.12473,-0.20182 1.23277,-0.30463 3.28146,-0.30438 h 3.09335 l -0.13229,-1.91823 -0.13229,-1.91874 -2.51096,-0.0734 c -2.3782,0.08 -3.80596,0.65744 -4.69429,1.87792 -0.36842,0.50617 -1.03901,3.56455 -2.45153,11.18485 -1.06928,5.76861 -2.01595,10.60464 -2.10375,10.74663 -0.008,0.0136 -1.33979,-0.008 -1.45934,0.004 l -0.015,0.0724 -16.46772,0.0682 c -6.02368,0.0249 -11.31911,0.003 -14.190349,-0.0506 -1.44592,-0.0269 -2.27687,-0.0616 -2.27687,-0.10232 0,-0.12157 1.63711,-2.00445 3.63802,-4.18424 2.000909,-2.17979 6.849819,-7.46873 10.775569,-11.75329 l 7.13755,-7.79022 -7.52564,-0.0703 c -4.13906,-0.0387 -7.63333,-0.17796 -7.7649,-0.30954 -0.21154,-0.21154 5.79814,-7.15121 15.03629,-17.3638 1.45628,-1.6099 3.64189,-4.05068 4.85707,-5.42396 l 2.20969,-2.497 -6.77375,-0.0708 c -3.72542,-0.0388 -6.77323,-0.16423 -6.77323,-0.27905 0,-0.11481 4.35153,-4.78583 9.67021,-10.38025 5.31868,-5.59443 10.27122,-10.8566 11.00605,-11.69334 l 1.29346,-1.47226 h -4.49275 -6.25853 l 0.0966,-0.12558 c -0.94838,-0.0397 -1.52549,-0.092 -1.52549,-0.14883 0,-0.25003 3.59717,-4.21951 12.95012,-14.29008 3.42766,-3.69065 6.68749,-7.23275 7.24452,-7.87135 l 1.01285,-1.16117 h -2.53421 c -1.36663,0 -2.48998,-0.0649 -2.53318,-0.14366 -4.1e-4,-9.4e-4 -4.1e-4,-0.002 -5.1e-4,-0.003 0,-0.17845 5.76878,-7.02836 11.22102,-13.32322 l 3.99252,-4.60902 0.016,4.69067 0.13384,-0.18862 0.0672,37.54809 c 0.0369,20.65133 0.003,37.61138 -0.0744,37.68918 -0.0141,0.0141 -0.0632,-0.007 -0.1416,-0.0594 l -10e-4,0.33176 -2.4474,-2.44946 -2.44739,-2.44998 0.01,-11.914 0.0103,-11.914 0.83664,-0.52917 c 0.60167,-0.38051 1.07407,-0.92103 1.40095,-1.54048 -0.33371,-0.56076 1.1663,-5.35027 -3.72717,-5.16329 -3.09153,0.11813 -2.89295,1.48701 -4.07029,3.4626 -0.38712,1.78406 0.1524,2.66423 1.32085,3.32902 l 0.77567,0.44132 5.1e-4,4.64519 0.15297,0.12299 0.0109,10.34045 0.0103,10.31359 4.05402,4.13514 4.22506,4.3093 v 0.0594 l 0.17519,0.17932 -0.0708,6.91689 -0.0703,6.91637 h -0.016 v 0.0832 h -1.71979 -1.71979 v -6.26577 -6.26576 l -4.29948,-4.32842 c -2.36472,-2.38085 -4.56737,-4.39643 -4.89479,-4.4788 -0.78155,-0.19663 -0.83142,-1.70853 -0.0811,-2.45876 0.87001,-0.87002 1.203,-2.44382 0.81236,-3.83905 -0.58079,-2.07435 -2.51482,-3.36224 -4.55683,-3.24424 -2.40219,0.48387 -4.22687,2.83303 -3.50986,5.49579 0.37243,1.38311 1.35767,2.53648 2.65617,3.10937 0.76806,0.33887 1.07935,0.65788 1.20612,1.23506 0.0972,0.44253 1.14384,1.69316 3.29696,3.93103 0.98025,0.94522 2.46098,2.44995 3.42976,3.49384 0.001,0.001 0.002,0.002 0.003,0.004 l 2.64428,2.68097 0.001,5.3294 0.001,5.32887 -0.14832,0.0372 v 0.23564 h -1.49034 c -0.60659,0.0317 -1.4017,0.0433 -2.17145,0.0264 l -1.20406,-0.0264 H 139.273 v 14.2875 14.2875 h 14.55208 14.55209 v -14.2875 -13.33407 c -0.0466,-0.65716 -0.10645,-0.92419 -0.18242,-0.93018 -0.0657,-0.005 -0.158,-0.0134 -0.26303,-0.0232 h -2.56626 c -2.1892,0 -2.79307,-0.0128 -3.02358,-0.26562 -0.0433,-0.0294 -0.0682,-0.0653 -0.0723,-0.10903 -0.0305,-0.0626 -0.0526,-0.13549 -0.0755,-0.22066 -0.0485,-0.1809 -0.0928,-1.01362 -0.12299,-2.17558 -2e-5,-6.7e-4 2e-5,-0.001 0,-0.002 -0.003,-0.11077 -0.007,-0.26008 -0.0103,-0.43098 -0.0153,-0.79664 -0.0274,-2.06085 -0.0274,-2.06085 0,0 0.005,-0.0172 0.006,-0.0181 -0.002,-0.27399 -0.008,-0.50653 -0.008,-0.78755 l -0.004,-4.87981 4.7625,-4.80694 c 4.05693,-4.09475 4.7625,-4.925 4.7625,-5.60431 0,-0.6694 0.12394,-0.82225 0.77205,-0.95188 1.07449,-0.21489 2.57451,-1.60677 2.94659,-2.7342 0.40584,-1.22971 0.17929,-3.1406 -0.47646,-4.02042 -1.80885,-2.42695 -5.70432,-2.31335 -7.40885,0.216 -0.31173,0.46258 -0.50683,1.05396 -0.58704,1.68311 -0.0134,0.10538 -0.024,0.21176 -0.031,0.31884 -0.0574,0.88084 0.10341,1.80475 0.47904,2.53421 0.14394,0.20277 0.31743,0.48263 0.524,0.88832 0,0 0.23922,0.28725 0.2868,0.69608 0.0355,0.12257 0.0553,0.22929 0.0553,0.31058 0,0.0965 -0.0909,0.27198 -0.27544,0.52916 -0.013,0.0188 -0.027,0.0375 -0.0413,0.0563 -8e-5,1.2e-4 9e-5,4e-4 0,5.2e-4 -0.58801,0.79869 -2.00285,2.3206 -4.31343,4.64416 l -4.63021,4.65656 v 6.2668 6.26732 h -0.11575 v 0.076 l -1.45211,-0.076 h -0.15193 -1.71979 v -7.04195 -7.04194 l 4.23333,-4.35323 4.23333,-4.35374 v -10.29963 -10.29963 l 0.26459,-0.25838 0.0165,-3.94859 0.98909,-0.84905 c 0.44911,-0.38561 1.22008,-2.26774 0.93027,-3.55905 -0.71315,-1.51187 -2.10859,-2.34891 -3.91824,-2.34891 -1.86325,0 -3.3263,2.046 -4.01039,3.52735 0.2763,0.436 0.77095,2.00023 1.24832,2.38113 l 0.9245,0.73742 v 4.15685 l 0.091,0.0884 0.048,9.72189 0.0481,9.72137 -2.54919,2.5492 -2.54972,2.54971 v -37.90001 c 0,-20.84492 0.0678,-37.90001 0.15038,-37.90001 0.0217,0 0.0643,0.0249 0.12299,0.0692 l 0.008,-4.36252 4.07158,4.73149 c 2.81643,3.24024 1.63039,1.84494 3.28812,3.8311 z"
         sodipodi:nodetypes="ccccccsscccsscscscccccccssssccscsscscccssscccscccccsccsssscsccssscccccsscccccsscccsscccsscccccssscscccccccsccccccscscsccccccccccccccccccscscssscccccccccsccccccccccscccsccccccsssssssccccscsccccccccccccccccccccscccccccccsscccc" /></g></g></svg>
