<?xml version="1.0" encoding="UTF-8" standalone="no"?>
<!-- Created with Inkscape (http://www.inkscape.org/) -->

<svg
   width="195.81638mm"
   height="49.769119mm"
   viewBox="0 0 195.81638 49.769119"
   version="1.1"
   id="svg1"
   xml:space="preserve"
   inkscape:version="1.4.3 (0d15f75, 2025-12-25)"
   sodipodi:docname="JUJ4.svg"
   xmlns:inkscape="http://www.inkscape.org/namespaces/inkscape"
   xmlns:sodipodi="http://sodipodi.sourceforge.net/DTD/sodipodi-0.dtd"
   xmlns="http://www.w3.org/2000/svg"
   xmlns:svg="http://www.w3.org/2000/svg"><sodipodi:namedview
     id="namedview1"
     pagecolor="#ffffff"
     bordercolor="#000000"
     borderopacity="0.25"
     inkscape:showpageshadow="2"
     inkscape:pageopacity="0.0"
     inkscape:pagecheckerboard="0"
     inkscape:deskcolor="#d1d1d1"
     inkscape:document-units="mm"
     inkscape:zoom="0.76167929"
     inkscape:cx="447.69499"
     inkscape:cy="721.43224"
     inkscape:window-width="1920"
     inkscape:window-height="1057"
     inkscape:window-x="-8"
     inkscape:window-y="-8"
     inkscape:window-maximized="1"
     inkscape:current-layer="g191"><inkscape:page
       x="0"
       y="0"
       width="195.81638"
       height="49.769119"
       id="page2"
       margin="0"
       bleed="0" /></sodipodi:namedview><defs
     id="defs1" /><g
     inkscape:label="Layer 1"
     inkscape:groupmode="layer"
     id="layer1"
     transform="translate(-0.689828,-166.60604)"><g
       id="g192"
       style="display:inline"
       transform="translate(-52.431036,325.31217)"><path
         style="fill:#000000"
         d="m 170.0667,-109.1079 c -1.23693,-0.13376 -3.46097,-0.48276 -4.94231,-0.77557 -2.88282,-0.56982 -8.79841,-2.27624 -9.17789,-2.64746 -0.25548,-0.24992 3.55232,-6.84021 4.38924,-7.59659 0.48047,-0.43424 1.168,-0.47737 7.70893,-0.48365 6.20431,-0.006 7.3794,-0.072 8.63661,-0.48564 1.86115,-0.61228 3.71617,-1.68219 3.63491,-2.09648 -0.0347,-0.17677 0.0844,-0.2921 0.26462,-0.25628 0.40252,0.08 1.47498,-1.5055 2.10219,-3.10783 0.41923,-1.071 0.48008,-2.70587 0.60561,-16.27189 l 0.13955,-15.08125 6.29488,-0.071 6.29489,-0.071 -0.0906,16.87201 c -0.10153,18.90849 -0.0148,17.99344 -2.11146,22.2691 -2.3783,4.84992 -7.18118,8.2458 -13.34209,9.43353 -2.53472,0.48865 -7.63324,0.66988 -10.40708,0.36992 z"
         id="path179" /><path
         style="fill:#000000"
         d="m 124.0292,-109.0946 c -12.27273,-0.9708 -19.24026,-6.12187 -21.0577,-15.56789 -0.2957,-1.53689 -0.37355,-5.21747 -0.37355,-17.66095 v -15.71943 h 6.35 6.35 l 0.002,13.95677 c 0.001,8.38087 0.11201,14.64386 0.27737,15.67657 0.91096,5.6891 4.73731,8.04099 13.08209,8.04099 7.57116,0 11.45821,-1.93475 12.83363,-6.38784 0.49992,-1.61854 0.52782,-2.46858 0.52782,-16.07918 0,-7.90365 0.0723,-14.55861 0.1606,-14.78879 0.14026,-0.36551 0.96296,-0.41852 6.49527,-0.41852 h 6.33467 l -0.09,16.47031 c -0.0883,16.15502 -0.10133,16.50741 -0.68057,18.40734 -1.04981,3.44341 -2.28158,5.5259 -4.64541,7.85372 -2.41942,2.38256 -4.20962,3.44299 -7.78452,4.61122 -4.30651,1.4073 -11.76981,2.08123 -17.78168,1.60568 z"
         id="path178" /><path
         style="fill:#000000"
         d="m 68.863574,-108.98868 c -2.1758,-0.21745 -5.35495,-0.6837 -7.27604,-1.06709 -3.33729,-0.66601 -8.46667,-2.25647 -8.46667,-2.62524 0,-0.18634 0.90786,-1.90112 2.01746,-3.81063 1.44079,-2.47946 2.24136,-3.58763 2.80077,-3.87691 0.66821,-0.34554 1.6839,-0.37891 6.91223,-0.22708 5.10141,0.14814 6.46055,0.10718 8.10704,-0.24434 2.82666,-0.60347 4.59899,-1.54952 5.83702,-3.11575 1.80505,-2.28356 1.90768,-2.92473 2.08919,-13.05276 0.18039,-10.06502 0.18129,-10.07022 2.28151,-13.23434 2.55894,-3.85521 7.58564,-7.80005 9.93918,-7.80005 0.48058,0 0.49674,0.51785 0.49338,15.80886 -0.003,14.63059 -0.0419,15.9962 -0.51947,18.3224 -1.61733,7.87848 -7.31798,13.18442 -15.61664,14.53534 -1.95398,0.31809 -7.01283,0.54611 -8.59896,0.38759 z"
         id="path177" /><path
         style="fill:#f66602;fill-opacity:1"
         d="m 77.763674,-150.11103 c -2.94388,-2.74544 -9.06635,-5.36152 -14.3902,-6.14881 -2.15671,-0.31894 -2.53065,-0.65142 -1.32292,-1.17626 2.94579,-1.28014 4.57179,-1.4466 11.07759,-1.13403 3.03876,0.146 7.52387,0.34312 9.96692,0.43804 2.44305,0.0949 4.49439,0.25751 4.55854,0.36131 0.0641,0.10379 -0.58758,0.62339 -1.44829,1.15465 -2.05055,1.26567 -4.25296,3.73083 -5.49527,6.15085 -0.5492,1.06985 -1.05808,1.94042 -1.13084,1.9346 -0.0728,-0.006 -0.88975,-0.71698 -1.81553,-1.58035 z"
         id="path181" /><g
         id="g255"
         transform="translate(163.09604,-74.670473)"
         style="fill:#f86902;fill-opacity:1"><path
           d="m 68.964682,-49.687971 c -0.68308,-0.008 -1.10282,0.86966 -0.53278,1.43971 0.37103,0.37103 0.31876,0.36158 0.85162,0.1571 0.54853,-0.21049 0.53992,-1.32408 -0.0119,-1.53583 -0.10621,-0.0408 -0.20938,-0.0598 -0.30696,-0.061 z"
           id="path204"
           style="fill:#f86902;fill-opacity:1" /><path
           d="m 74.860962,-53.751801 c -0.052,0 -0.28115,0.18709 -0.50953,0.41548 -0.31345,0.31344 -0.34846,0.54047 -0.14211,0.92604 0.15036,0.28093 0.4436,0.51056 0.65164,0.51056 0.64861,0 0.98882,-0.95784 0.51005,-1.4366 -0.22839,-0.22839 -0.45805,-0.41548 -0.51005,-0.41548 z"
           id="path203"
           style="fill:#f86902;fill-opacity:1" /><path
           d="m 53.759412,-60.327111 c -0.0391,-3.8e-4 -0.0792,0.003 -0.12041,0.0114 -0.68346,0.13463 -1.02721,0.89627 -0.62425,1.38234 0,0 0,5.2e-4 0,5.2e-4 0.43615,0.52561 0.66701,0.52619 1.18959,0.004 0.4748,-0.4748 0.14225,-1.39213 -0.44493,-1.39785 z"
           id="path201"
           style="fill:#f86902;fill-opacity:1" /><path
           d="m 53.633832,-61.592151 c -0.15059,-2.6e-4 -0.3044,0.0178 -0.45992,0.0568 -1.28716,0.32305 -2.11398,2.00221 -1.47949,3.00499 0.16759,0.26486 0.0168,0.70806 -0.49558,1.45521 -0.40521,0.5909 -1.48324,2.26497 -2.39572,3.72018 -0.91248,1.4552 -1.99752,3.18162 -2.41122,3.83646 l -0.75241,1.19063 10.60659,0.0692 10.60607,0.0693 0.50436,0.64079 c 0.88162,1.12079 2.80266,0.96367 3.36724,-0.27544 0.16558,-0.3634 0.30075,-0.82843 0.30075,-1.03301 0,-2 -2.62598,-2.83804 -3.77083,-1.20354 -0.37864,0.5406 -0.5316,0.54802 -9.67486,0.47955 l -9.29039,-0.0698 2.37867,-3.83646 c 1.36737,-2.20511 2.57314,-3.869 2.83549,-3.91294 1.35596,-0.22711 1.67016,-0.39124 2.00969,-1.05161 0.72305,-1.40629 -0.42266,-3.1379 -1.87844,-3.14038 z m 0.12558,1.26504 c 0.58718,0.006 0.91973,0.92305 0.44493,1.39785 -0.52258,0.52257 -0.75344,0.52199 -1.18959,-0.004 0,0 0,-5.2e-4 0,-5.2e-4 -0.40296,-0.48607 -0.0592,-1.24771 0.62425,-1.38234 0.0412,-0.008 0.0813,-0.0118 0.12041,-0.0114 z m 15.20527,10.63914 c 0.0976,10e-4 0.20075,0.0202 0.30696,0.061 0.5518,0.21175 0.56041,1.32534 0.0119,1.53583 -0.53286,0.20448 -0.48059,0.21393 -0.85162,-0.1571 -0.57004,-0.57005 -0.1503,-1.44765 0.53278,-1.43971 z"
           id="path200"
           style="fill:#fcfcfc;fill-opacity:1" /><path
           d="m 56.634682,-70.616401 c -0.0594,-0.004 -0.15775,0.11511 -0.32194,0.32814 -0.22431,0.29104 -0.52251,0.73753 -0.66249,0.99219 -0.21225,0.38612 -0.1434,0.46302 0.41599,0.46302 0.60026,0 0.67049,-0.10436 0.66249,-0.99219 -0.005,-0.54736 -0.0127,-0.78534 -0.0941,-0.79116 z"
           id="path199"
           style="fill:#f86902;fill-opacity:1" /><path
           d="m 64.730312,-76.765901 c -1.85735,-0.005 -3.27574,0.56571 -4.42763,1.78129 -1.2882,1.35943 -1.55829,2.16521 -1.70584,5.09323 l -0.14005,2.77812 -2.24895,0.0816 -2.24896,0.0816 -2.91042,4.36717 c -1.60073,2.40181 -3.95221,5.97122 -5.22552,7.93234 l -2.3151,3.56567 v 2.8975 2.89749 l 13.55989,0.0687 13.5599,0.0682 -0.0465,5.09323 -0.0465,5.09323 4.27984,5.1e-4 h 4.27984 v -5.09323 -5.09374 l 3.37344,-0.0739 3.37344,-0.0739 v -3.43183 -3.43183 h -3.43958 -3.43959 v -3.83646 -3.83646 h -0.66146 c -0.64255,0 -0.66145,-0.0529 -0.66145,-1.85208 v -1.85208 h -1.05834 -1.05833 v 4.35632 c 0,3.97862 0.0428,4.37948 0.49299,4.62039 0.82349,0.44071 1.20675,1.69816 0.78548,2.5771 -0.79475,1.65819 -2.81756,1.72542 -3.75222,0.12506 -0.42486,-0.72746 -0.44774,-0.95806 -0.16433,-1.64228 0.18136,-0.43786 0.55161,-0.9148 0.82269,-1.05988 0.45018,-0.24091 0.49247,-0.64177 0.49247,-4.62039 v -4.35632 h -1.7141 -1.71463 l -0.0713,5.62239 -0.0718,5.6224 -8.40052,0.0703 c -4.62028,0.0384 -8.40052,-0.011 -8.40052,-0.10956 0,-0.0986 1.39154,-2.27309 3.0918,-4.83226 3.59962,-5.41801 6.43306,-9.76588 6.43371,-9.87123 2.5e-4,-0.0407 -0.86295,-0.0739 -1.91823,-0.0739 h -1.91874 l -0.0827,-0.8599 -0.0827,-0.85989 h 2.6262 2.62671 l 1.91513,-2.89647 c 1.05345,-1.59322 1.9329,-3.10378 1.9544,-3.3569 0.0691,-0.81526 -1.84526,-1.67448 -3.74189,-1.67948 z m -11.09648,15.17375 c 1.45578,0.002 2.60149,1.73409 1.87844,3.14038 -0.33953,0.66037 -0.65373,0.8245 -2.00969,1.05161 -0.26235,0.0439 -1.46812,1.70783 -2.83549,3.91294 l -2.37867,3.83646 9.29039,0.0698 c 9.14326,0.0685 9.29622,0.061 9.67486,-0.47955 1.14485,-1.6345 3.77083,-0.79646 3.77083,1.20354 0,0.20458 -0.13517,0.66961 -0.30075,1.03301 -0.56458,1.23911 -2.48562,1.39623 -3.36724,0.27544 l -0.50436,-0.64079 -10.60607,-0.0693 -10.60659,-0.0692 0.75241,-1.19063 c 0.4137,-0.65484 1.49874,-2.38126 2.41122,-3.83646 0.91248,-1.45521 1.99051,-3.12928 2.39572,-3.72018 0.51236,-0.74715 0.66317,-1.19035 0.49558,-1.45521 -0.63449,-1.00278 0.19233,-2.68194 1.47949,-3.00499 0.15552,-0.039 0.30933,-0.0571 0.45992,-0.0568 z"
           id="path198"
           style="fill:#f86902;fill-opacity:1" /><path
           d="m 72.605802,-81.002851 -4.69325,0.003 -4.69326,0.003 -0.54983,0.8568 c -0.30257,0.47114 -0.75488,1.17206 -1.00511,1.55753 l -0.45527,0.70073 1.00511,-0.35864 c 1.62817,-0.58077 3.97404,-0.47253 5.53713,0.25529 0.74616,0.34742 1.43765,0.76298 1.53685,0.92345 v 5.2e-4 c 0.3684,0.59608 0.55535,0.40359 2.35025,-2.42001 z"
           id="path197"
           style="fill:#f86902;fill-opacity:1" /><path
           style="fill:#f86902;fill-opacity:1"
           d="m 71.03213,-69.939316 c 0.0999,-1.39066 -0.57111,-3.65109 -1.38786,-4.67539 l -0.59739,-0.74919 -1.90468,2.86377 c -2.84444,4.2767 -2.92781,3.82589 0.69619,3.76418 l 3.11111,-0.053 z"
           id="path254" /><path
           style="fill:#f86902;fill-opacity:1"
           d="m 52.48564,-64.452127 c 0.81969,-1.25924 1.49035,-2.3671 1.49035,-2.4619 0,-0.0948 -0.56555,-0.13607 -1.25677,-0.0917 l -1.25677,0.0806 -0.58508,2.23193 c -0.32179,1.22756 -0.66316,2.59678 -0.7586,3.04271 l -0.17352,0.81078 0.52502,-0.66146 c 0.28876,-0.3638 1.19568,-1.69174 2.01537,-2.95098 z"
           id="path253" /></g></g></g></svg>
